PathFileType	4	(X/Y/Z)	C:/Users/beibeiliu/ov580/test_trc/User2\sequence.1_training_dense_right.trc
DataRate	CameraRate	NumFrames	NumMarkers	Units	OrigDataRate	OrigDataStartFrame	OrigNumFrames
120	120	12	19	mm	120	296	338
Frame#	Time	ThumbCMC			ThumbMCP			ThumbIP			ThumbTip			IndexMCP			IndexPIP			IndexTip			MiddleMCP			MiddlePIP			MiddleTip			RingMCP			RingPIP			RingTip			PinkyMCP			PinkyPIP			PinkyTip			BackHand1			BackHand2			BackHand3	
		X0	Y0	Z0	X1	Y1	Z1	X2	Y2	Z2	X3	Y3	Z3	X4	Y4	Z4	X5	Y5	Z5	X6	Y6	Z6	X7	Y7	Z7	X8	Y8	Z8	X9	Y9	Z9	X10	Y10	Z10	X11	Y11	Z11	X12	Y12	Z12	X13	Y13	Z13	X14	Y14	Z14	X15	Y15	Z15	X16	Y16	Z16	X17	Y17	Z17	X18	Y18	Z18	
295	2.45833	134.532	-3.57639	50.1648	114.614	-9.78064	25.4624	97.7482	-18.441	-2.7503	87.2835	-27.297	-25.7883	148.064	2.15038	-35.7131	144.119	-3.55125	-67.0298	141.937	-11.0556	-93.3016	174.901	5.23508	-41.7356	175.654	-0.166483	-73.0271	177.795	-5.37744	-104.653	199.53	1.93595	-36.3643	203.502	-1.28486	-62.2996	206.862	-3.65414	-91.0838	222.247	-8.85435	-20.9763	230.349	-10.5422	-43.6064	233.104	-7.82428	-63.2501	199.632	9.72292	20.5344	200.446	18.0347	49.9842	162.83	18.9504	32.3866	
296	2.46667	130.087	-2.13517	49.0499	109.069	-10.3721	26.9127	87.8072	-19.4679	-2.87923	78.226	-29.2194	-22.9645	140.294	-0.970876	-34.297	137.795	-7.21236	-61.42	134.937	-17.4364	-90.7936	170.058	2.11272	-43.4201	167.906	-5.51909	-73.1202	171.068	-11.8526	-104.13	191.387	-1.16102	-37.8244	193.615	-6.06556	-64.4776	196.907	-10.9972	-88.656	215.203	-9.7661	-19.2641	225.283	-14.6547	-38.6973	232.185	-10.7707	-65.0657	192.579	10.4667	22.1761	195.897	19.6548	50.1301	155.446	20.7467	34.3449	
297	2.475	123.477	-1.32985	53.2479	98.9431	-8.91388	29.4717	79.8881	-20.4688	4.03967	68.4289	-31.8704	-17.3745	134.747	-4.37579	-36.0211	128.825	-12.8178	-57.8382	125.133	-24.4096	-89.0686	162.572	-2.28038	-43.8357	158.136	-11.6067	-74.3978	165.478	-20.8764	-99.8198	185.298	-5.59991	-33.5132	186.969	-11.8904	-60.734	191.977	-18.6302	-88.6619	207.448	-13.9478	-14.1254	217.71	-18.5266	-38.5817	223.104	-19.4614	-59.662	187.641	10.7429	21.8448	183.712	20.8905	50.9785	148.759	20.9409	35.0453	
298	2.48333	115.126	1.85275	56.1433	92.6859	-7.25046	33.9978	75.3244	-21.0621	8.09867	59.6482	-31.3011	-9.73573	127.094	-9.32599	-31.1736	117.15	-19.5595	-59.445	116.663	-32.798	-81.9555	153.845	-8.52598	-39.0545	150.567	-19.6257	-69.8246	151.218	-31.4837	-97.81	177.312	-13.1398	-32.802	181.013	-21.0081	-55.5449	181.457	-30.5404	-87.3965	202.811	-19.2149	-13.2094	206.144	-25.2227	-35.9569	212.052	-29.4165	-58.4869	181.544	7.0616	20.4637	180.219	21.2638	54.2042	147.087	17.001	34.6882	
299	2.49167	111.391	3.18654	58.2575	83.4885	-3.80116	35.1556	65.8526	-18.0558	15.2815	51.1891	-30.9618	-5.24673	118.732	-13.5789	-25.964	111.736	-24.765	-50.8041	108.252	-40.3005	-76.1299	146.475	-16.6934	-38.486	145.809	-29.3824	-63.0951	144.774	-43.0647	-90.192	170.251	-20.8019	-30.0342	172.366	-32.0314	-53.8541	172.522	-44.7284	-80.2715	192.275	-27.3991	-5.56594	198.143	-37.171	-34.2217	204.173	-44.6681	-57.4799	174.147	5.74953	25.2024	178.391	18.3898	51.4356	138.833	17.3824	36.6498	
300	2.5	108.031	5.7691	60.3473	78.1172	-0.460866	41.611	56.7527	-13.8527	15.3074	44.7098	-25.7837	3.24745	112.12	-18.0357	-24.9623	103.895	-31.0729	-47.1915	97.1058	-48.3697	-71.8314	138.676	-22.9706	-32.9722	133.79	-37.11	-56.6663	137.305	-56.6293	-84.9079	164.097	-29.4889	-23.6671	164.088	-42.3358	-46.7256	160.36	-56.87	-70.6834	186.116	-36.7624	-6.05631	191.838	-50.0907	-29.4693	193.387	-57.5476	-48.1057	167.367	-0.440621	23.5207	171.751	16.0975	51.6932	134.645	16.519	36.9682	
301	2.50833	100.082	11.3115	62.52	76.2492	1.93326	42.3868	50.9422	-9.07022	20.8252	37.289	-21.6538	3.72451	104.697	-21.0859	-21.3299	95.0376	-36.2795	-43.3121	89.1972	-54.8749	-66.3164	133.146	-31.2279	-31.2855	126.181	-47.2108	-54.7908	125.112	-68.3104	-80.2599	154.234	-39.4558	-21.8449	152.877	-52.0853	-41.4211	147.562	-69.5506	-67.5741	173.368	-45.1903	-2.78061	178.603	-60.5433	-19.8316	183.183	-73.3736	-46.1704	164.184	-5.80027	28.2717	170.545	14.39	54.9939	134.998	12.2465	35.008	
302	2.51667	100.927	11.8147	61.4914	74.5961	6.74052	44.3361	48.8241	-3.31683	22.5871	33.3263	-14.6756	10.7151	98.0785	-22.4715	-16.3647	89.0875	-40.8633	-39.983	78.1376	-59.7967	-60.8713	124.395	-35.2598	-23.3825	117.822	-56.0141	-49.9038	112.384	-77.0154	-73.507	148.486	-47.6323	-18.0747	144.919	-64.457	-37.1199	138.645	-82.9039	-59.6926	165.086	-53.6031	2.58897	167.626	-72.8201	-16.0063	166.991	-87.8306	-35.8425	157.13	-10.3482	27.2203	166.522	10.2961	56.3208	131.662	11.8416	35.5717	
303	2.525	98.2659	18.1005	62.0899	71.7718	13.4251	42.9741	43.7201	5.50386	22.3001	25.7909	-1.78799	13.3487	94.5942	-24.3753	-13.6826	78.4276	-39.2447	-35.8101	68.7747	-57.2789	-52.3966	117.748	-42.1711	-22.865	103.363	-59.8154	-46.544	96.7791	-81.9214	-64.715	137.785	-52.2292	-9.31581	133.431	-73.0655	-30.9633	122.049	-91.9416	-52.244	156.843	-64.1219	6.82457	152.826	-81.7406	-7.59255	146.688	-97.457	-30.7642	151.18	-17.5357	28.7736	163.269	3.04087	54.8336	127.75	11.6701	37.6741	
304	2.53333	99.9153	20.9647	60.8828	73.145	21.3315	42.8819	46.9649	13.9645	22.7832	26.5762	8.20878	12.4586	85.0782	-24.0321	-14.6432	72.7387	-37.995	-30.8659	58.671	-61.1347	-48.5206	106.668	-43.97	-18.6669	94.4065	-64.3869	-38.5228	79.1918	-87.1534	-60.0452	124.077	-59.618	-7.93837	116.361	-80.0343	-26.8465	105.144	-97.9358	-41.6088	143.889	-71.5537	14.0491	136.509	-88.6841	0.717608	131.146	-108.366	-15.7077	147.151	-23.4217	31.5741	161.618	-4.03431	53.9493	128.29	12.3584	36.8707	
305	2.54167	102.154	26.2454	58.7832	75.9758	30.4683	43.3292	48.1225	23.2544	19.1031	26.6781	19.0897	7.25491	82.0984	-23.277	-10.6217	64.9561	-36.0166	-28.6642	48.0255	-55.448	-44.1004	98.8602	-45.7744	-12.6297	79.4655	-66.6836	-34.2298	64.3421	-87.2334	-50.2663	112.299	-65.5703	-2.68871	101.735	-81.1711	-16.919	84.7536	-101.05	-33.8943	128.659	-76.2445	24.7617	117.416	-98.6754	6.30573	105.965	-110.472	-7.67566	142.455	-28.5134	37.0064	160.351	-12.9291	55.6539	127.555	8.70396	37.1116	
306	2.55	105.27	29.8873	54.2657	79.3042	37.4422	37.561	50.616	36.2612	15.4616	30.9697	32.7394	6.7444	75.2076	-21.0566	-13.3082	59.2605	-36.0653	-26.9232	40.09	-52.8301	-41.0567	89.9937	-49.5024	-10.5842	67.6852	-66.3308	-30.6685	50.7413	-87.0402	-43.5529	100.69	-66.5736	4.37112	85.2556	-83.6131	-11.3786	67.2121	-104.23	-26.9542	110.658	-77.7889	26.6815	99.4729	-96.72	16.7651	86.227	-115.972	-2.25687	134.863	-32.5704	39.782	155.787	-19.742	61.3978	128.123	-0.226851	35.9755	
